<svg viewBox="0 0 500 500" width="500" height="500" xmlns="http://www.w3.org/2000/svg">
    <path d="M387.3 351.219c-.648 10.255-53.2 10.5-53.2 3.1v-66.4c0-7.3 52.593-7.342 53.2 1.7m-273.7 1.3c0-10.2 53.2-12.3 53.2-2.9v66.3c0 7.4-53.2 5-53.2-1.7M387.3 482.8c-.648 10.239-5.317 15.037-15.253 15.038-9.175 0-18.349.073-27.521-.025-6.365-.068-10.426-4.513-10.426-11.913v-57.1c0-7.2 53.2-7.3 53.2 1.8m-273.7 1.3c0-10.2 53.2-12.3 53.2-3v57c0 7.3-5.203 11.896-12.342 11.928-9.327.041-18.665-.302-27.977.099-9.112.391-12.881-7.027-12.881-13.727m273.7-272.1c-.648 10.255-53.2 10.5-53.2 3.1v-66.4c0-7.3 52.593-7.342 53.2 1.7m-273.7 1.3c0-10.2 53.2-12.3 53.2-2.9v66.3c0 7.4-53.2 5-53.2-1.7M387.3 62.7c-.643 10.207-53.2 10.4-53.2 3 0-20.9.022-29.765.017-49.5.107-7.267 4.582-11.872 11.685-11.905 9.322-.043 18.659.304 27.962-.119 6.398-.29 13.559 4.718 13.542 13.789M113.63 19.247c.017-10.202 4.694-14.961 14.7-14.962h24.593c8.294 0 11.623 2.675 13.868 12.002.006 20.596.009 29.413.009 49.513 0 7.3-53.2 5-53.2-1.7" style="fill:#757575"/>
    <path d="M135.461 242.749v-19.313c1.36-.291 2.608-.124 3.837-.155 1.186-.027 2.373-.004 3.557-.004 1.255 0 2.512-.017 3.765.004 1.169.018 2.348-.097 3.597.104.05.416.118.746.128 1.078.207 6.575.074 47.442-.176 49.478-1.19.228-2.436.08-3.67.106-1.184.024-2.368.005-3.555.005-1.256 0-2.511.009-3.766-.003-1.168-.011-2.343.065-3.365-.053-.181-.192-.272-.242-.272-.292q-.045-15.478-.08-30.955m34.211 31.303h-8.063c-.072-.524-.192-.98-.193-1.436-.015-4.253-.01-8.506-.01-12.758 0-11.363-.002-22.726.004-34.088 0-.755.035-1.509.051-2.231 1.619-.328 11.033-.415 14.6-.149.062.352.188.738.191 1.123.018 2.37.011 4.741.011 7.11q0 19.975-.002 39.943c0 .754-.041 1.506-.068 2.385-1.185.174-2.29.082-3.384.098-1.046.016-2.091.003-3.137.003m-60.144-39.26c.003-4.036-.005-7.651.007-11.112.207-.197.253-.254.311-.29a.4.4 0 0 1 .186-.069c.556-.02 1.116-.048 1.672-.046q6.069.004 12.137.027c.126 0 .251.097.47.187.043.354.127.76.135 1.166.255 10.366.116 47.118-.195 49.254-1.544.322-3.139.099-4.719.138-1.675.041-3.349.014-5.022.007-1.588-.005-3.177-.021-4.678-.034-.144-.274-.258-.391-.258-.509-.021-12.908-.032-25.812-.046-38.719m78.763-5.86c.012-2.081.02-3.743.032-5.233.191-.21.23-.272.286-.309a.4.4 0 0 1 .19-.067c.555-.021 1.113-.05 1.671-.048q6.069.005 12.139.03c.127 0 .252.094.478.185.043.28.132.611.142.945.246 6.844.089 47.549-.202 49.492-1.187.272-2.437.092-3.667.124-1.186.029-2.374.004-3.559.004-1.256 0-2.513.016-3.769-.003-1.171-.017-2.349.087-3.413-.071-.14-.163-.195-.211-.23-.27a.4.4 0 0 1-.058-.192zm142.863 16.014c.76-4.265 2.238-7.855 4.648-11.019 4.44-5.83 10.311-9.284 17.564-10.334 7.403-1.072 14.168.608 20.147 5.082 13.532 10.129 13.542 29.742.084 39.974-10.695 8.132-26.672 7.205-36.133-3.208-4.998-5.504-7.197-12.006-6.412-19.452q.053-.519.102-1.043m-17.616-.434c2.211 13.336-6.717 26.345-20.71 29.016-8.921 1.705-16.96-.4-23.67-6.597-11.165-10.31-10.701-27.461.88-37.303 11.757-9.996 29.885-7.949 39.005 4.402 2.321 3.141 3.807 6.64 4.495 10.482M99.059 295.443h295.073c.769 0 1.535-.009 2.304-.006 4.625.011 9.236-3.108 10.973-7.986.569-1.595.76-3.238.76-4.932-.016-22.55-.011-45.098-.011-67.646 0-.348.008-.698-.003-1.048-.152-5.765-4.19-10.621-9.826-11.71-1.153-.223-2.361-.199-3.544-.199q-148.17-.01-296.339-.008c-.49 0-.978.014-1.468 0-3.88-.113-9.182 2.286-11.259 8.201-.562 1.601-.672 3.268-.672 4.953.003 22.408 0 44.816.01 67.224 0 .977.049 1.96.185 2.922.816 5.747 5.844 10.055 11.095 10.206.907.028 1.814.029 2.722.029m36.402 87.052v-19.314c1.36-.291 2.608-.124 3.837-.154 1.186-.028 2.373-.005 3.557-.005 1.255 0 2.512-.017 3.765.004 1.169.019 2.348-.096 3.597.105.05.415.118.745.128 1.078.207 6.575.074 47.442-.176 49.478-1.19.227-2.436.08-3.67.104-1.184.026-2.368.007-3.555.007-1.256 0-2.511.009-3.766-.003-1.168-.011-2.343.063-3.365-.054-.181-.192-.272-.242-.272-.292q-.045-15.476-.08-30.954m34.211 31.303h-8.063c-.072-.526-.192-.98-.193-1.438-.015-4.252-.01-8.505-.01-12.757 0-11.362-.002-22.724.004-34.088 0-.755.035-1.508.051-2.23 1.619-.329 11.033-.417 14.6-.15.062.353.188.738.191 1.124.018 2.37.011 4.74.011 7.11q0 19.973-.002 39.944c0 .753-.041 1.505-.068 2.383-1.185.175-2.29.081-3.384.099-1.046.014-2.091.003-3.137.003m-60.144-39.261c.003-4.035-.005-7.65.007-11.112.207-.196.253-.253.311-.29a.4.4 0 0 1 .186-.069c.556-.02 1.116-.047 1.672-.045q6.069.005 12.137.025c.126 0 .251.097.47.189.043.354.127.758.135 1.165.255 10.367.116 47.119-.195 49.254-1.544.323-3.139.1-4.719.139-1.675.041-3.349.014-5.022.007-1.588-.005-3.177-.023-4.678-.034-.144-.275-.258-.393-.258-.509-.021-12.908-.032-25.813-.046-38.72m78.763-5.859c.012-2.081.02-3.743.032-5.234.191-.209.23-.271.286-.309a.4.4 0 0 1 .19-.067c.555-.022 1.113-.049 1.671-.047q6.069.006 12.139.029c.127 0 .252.096.478.187.043.279.132.609.142.944.246 6.843.089 47.549-.202 49.491-1.187.272-2.437.093-3.667.124-1.186.029-2.374.005-3.559.005-1.256 0-2.513.016-3.769-.003-1.171-.018-2.349.087-3.413-.071-.14-.163-.195-.213-.23-.272a.4.4 0 0 1-.058-.19zm142.863 16.014c.76-4.266 2.238-7.855 4.648-11.02 4.44-5.83 10.311-9.283 17.564-10.335 7.403-1.071 14.168.609 20.147 5.084 13.532 10.128 13.542 29.742.084 39.975-10.695 8.13-26.672 7.204-36.133-3.21-4.998-5.503-7.197-12.005-6.412-19.451q.053-.52.102-1.043m-17.616-.434c2.211 13.336-6.717 26.344-20.71 29.016-8.921 1.705-16.96-.401-23.67-6.597-11.165-10.31-10.701-27.46.88-37.303 11.757-9.996 29.885-7.951 39.005 4.402 2.321 3.141 3.807 6.64 4.495 10.482m-214.479 50.93h295.073c.769 0 1.535-.009 2.304-.006 4.625.011 9.236-3.107 10.973-7.985.569-1.595.76-3.239.76-4.933-.016-22.548-.011-45.097-.011-67.645 0-.35.008-.698-.003-1.048-.152-5.765-4.19-10.621-9.826-11.711-1.153-.224-2.361-.198-3.544-.198q-148.17-.009-296.339-.007c-.49 0-.978.012-1.468-.003-3.88-.113-9.182 2.288-11.259 8.203-.562 1.601-.672 3.268-.672 4.951.003 22.411 0 44.818.01 67.226 0 .976.049 1.96.185 2.921.816 5.748 5.844 10.056 11.095 10.207.907.026 1.814.028 2.722.028m36.402-332.183V83.69c1.36-.292 2.608-.124 3.837-.152 1.186-.029 2.373-.007 3.557-.007 1.255 0 2.512-.017 3.765.004 1.169.019 2.348-.095 3.597.104.05.416.118.745.128 1.078.207 6.576.074 47.442-.176 49.478-1.19.229-2.436.081-3.67.105-1.184.026-2.368.007-3.555.007-1.256 0-2.511.009-3.766-.003-1.168-.012-2.343.064-3.365-.053-.181-.192-.272-.242-.272-.293q-.045-15.476-.08-30.953m34.211 31.302h-8.063c-.072-.525-.192-.98-.193-1.437-.015-4.253-.01-8.505-.01-12.758 0-11.362-.002-22.726.004-34.088 0-.754.035-1.507.051-2.23 1.619-.329 11.033-.416 14.6-.15.062.353.188.738.191 1.123.018 2.372.011 4.741.011 7.112q0 19.972-.002 39.942c0 .754-.041 1.506-.068 2.385-1.185.175-2.29.081-3.384.098-1.046.016-2.091.003-3.137.003m-60.144-39.261c.003-4.034-.005-7.65.007-11.113.207-.196.253-.252.311-.289a.4.4 0 0 1 .186-.07c.556-.019 1.116-.046 1.672-.044q6.069.003 12.137.027c.126 0 .251.096.47.186.043.356.127.76.135 1.166.255 10.367.116 47.119-.195 49.254-1.544.322-3.139.1-4.719.139-1.675.04-3.349.014-5.022.007-1.588-.005-3.177-.022-4.678-.035-.144-.274-.258-.391-.258-.51-.021-12.906-.032-25.81-.046-38.718m78.763-5.86c.012-2.08.02-3.742.032-5.233.191-.21.23-.271.286-.309a.4.4 0 0 1 .19-.067c.555-.02 1.113-.049 1.671-.047q6.069.004 12.139.029c.127 0 .252.095.478.185.043.281.132.613.142.945.246 6.844.089 47.55-.202 49.491-1.187.273-2.437.092-3.667.125-1.186.03-2.374.005-3.559.005-1.256 0-2.513.016-3.769-.003-1.171-.018-2.349.086-3.413-.07-.14-.163-.195-.212-.23-.272a.4.4 0 0 1-.058-.192zm142.863 16.015c.76-4.266 2.238-7.854 4.648-11.02 4.44-5.83 10.311-9.283 17.564-10.334 7.403-1.072 14.168.608 20.147 5.082 13.532 10.129 13.542 29.742.084 39.975-10.695 8.131-26.672 7.205-36.133-3.209-4.998-5.502-7.197-12.006-6.412-19.452q.053-.52.102-1.042m-17.616-.434c2.211 13.335-6.717 26.345-20.71 29.018-8.921 1.704-16.96-.401-23.67-6.599-11.165-10.31-10.701-27.46.88-37.304 11.757-9.996 29.885-7.949 39.005 4.402 2.321 3.142 3.807 6.64 4.495 10.483M99.059 155.698h295.073c.769 0 1.535-.009 2.304-.007 4.625.011 9.236-3.107 10.973-7.984.569-1.597.76-3.24.76-4.934-.016-22.549-.011-45.098-.011-67.646 0-.347.008-.698-.003-1.047-.152-5.764-4.19-10.62-9.826-11.71-1.153-.224-2.361-.2-3.544-.2q-148.17-.009-296.339-.007c-.49 0-.978.014-1.468-.002-3.88-.112-9.182 2.288-11.259 8.202-.562 1.603-.672 3.269-.672 4.953.003 22.409 0 44.817.01 67.225 0 .976.049 1.96.185 2.921.816 5.749 5.844 10.056 11.095 10.208.907.026 1.814.028 2.722.028" style="fill-rule:nonzero;paint-order:fill;fill:#3d2923"/>
</svg>
